<svg width="16" height="16" viewBox="0 0 16 16" fill="none" xmlns="http://www.w3.org/2000/svg">
<path d="M8 11C6.35 11 5 9.65 5 8C5 6.35 6.35 5 8 5C9.65 5 11 6.35 11 8C11 9.65 9.65 11 8 11ZM8 6C6.9 6 6 6.9 6 8C6 9.1 6.9 10 8 10C9.1 10 10 9.1 10 8C10 6.9 9.1 6 8 6Z" fill="black"/>
<path d="M7.99998 13C4.80998 13 2.00998 11.06 1.02998 8.16C0.990008 8.05708 0.990008 7.94292 1.02998 7.84C2.00998 4.95 4.81998 3 7.99998 3C11.18 3 13.99 4.94 14.97 7.84C15.01 7.94 15.01 8.06 14.97 8.16C13.99 11.05 11.18 13 7.99998 13ZM2.02998 8C2.91998 10.4 5.29998 12 7.99998 12C10.7 12 13.07 10.4 13.97 8C13.08 5.6 10.7 4 7.99998 4C5.29998 4 2.92998 5.6 2.02998 8Z" fill="black"/>
<path d="M14 14.5C13.9344 14.5008 13.8694 14.4879 13.8091 14.462C13.7489 14.4362 13.6946 14.398 13.65 14.35L1.65 2.34999C1.45 2.14999 1.45 1.83999 1.65 1.63999C1.85 1.43999 2.16 1.43999 2.36 1.63999L14.35 13.65C14.55 13.85 14.55 14.16 14.35 14.36C14.25 14.46 14.12 14.51 14 14.51V14.5Z" fill="black"/>
</svg>
